<?xml version="1.0" encoding="utf-8"?>
<!-- Generator: SketchAPI 2022.10.24.12 https://api.sketch.io -->
<svg version="1.1" xmlns="http://www.w3.org/2000/svg" xmlns:xlink="http://www.w3.org/1999/xlink" xmlns:sketchjs="https://sketch.io/dtd/" sketchjs:metadata="eyJuYW1lIjoiRHJhd2luZy0yLnNrZXRjaHBhZCIsInN1cmZhY2UiOnsiaXNQYWludCI6dHJ1ZSwibWV0aG9kIjoiZmlsbCIsImJsZW5kIjoibm9ybWFsIiwiZW5hYmxlZCI6dHJ1ZSwib3BhY2l0eSI6MSwidHlwZSI6InBhdHRlcm4iLCJwYXR0ZXJuIjp7InR5cGUiOiJwYXR0ZXJuIiwicmVmbGVjdCI6Im5vLXJlZmxlY3QiLCJyZXBlYXQiOiJyZXBlYXQiLCJzbW9vdGhpbmciOmZhbHNlLCJzcmMiOiJ0cmFuc3BhcmVudExpZ2h0Iiwic3giOjEsInN5IjoxLCJ4MCI6MC41LCJ4MSI6MSwieTAiOjAuNSwieTEiOjF9LCJpc0ZpbGwiOnRydWV9LCJjbGlwUGF0aCI6eyJlbmFibGVkIjp0cnVlLCJzdHlsZSI6eyJzdHJva2VTdHlsZSI6ImJsYWNrIiwibGluZVdpZHRoIjoxfX0sImRlc2NyaXB0aW9uIjoiTWFkZSB3aXRoIFNrZXRjaHBhZCIsIm1ldGFkYXRhIjp7fSwiZXhwb3J0RFBJIjo3MiwiZXhwb3J0Rm9ybWF0IjoicG5nIiwiZXhwb3J0UXVhbGl0eSI6MC45NSwidW5pdHMiOiJweCIsIndpZHRoIjo0MTQsImhlaWdodCI6MTIwMCwicGFnZXMiOlt7IndpZHRoIjo0MTQsImhlaWdodCI6MTIwMH1dLCJ1dWlkIjoiMjU4MTdiMzMtY2E1MS00MWZkLWJmY2EtMTEwMmQ4NDQxZWU2In0=" width="414" height="1200" viewBox="0 0 414 1200">
<path style="fill: #b5d0ff; stroke: #b5d0ff; mix-blend-mode: source-over; paint-order: stroke fill markers; fill-opacity: 1; stroke-dasharray: none; stroke-dashoffset: 0; stroke-linecap: round; stroke-linejoin: miter; stroke-miterlimit: 4; stroke-opacity: 1; stroke-width: 2;" sketchjs:tool="path" d="M149 8 L77 23 17 107 0 187 44 217 112 207 155 152 165 58 162 0 149 8 z" transform="matrix(-0.5500159063388544,0.84096318726264,-0.8132783915376522,-0.5319091946026966,294.6268130200468,98.00656851752764)"/>
<path style="fill: #b5d0ff; stroke: #b5d0ff; mix-blend-mode: source-over; paint-order: stroke fill markers; fill-opacity: 1; stroke-dasharray: none; stroke-dashoffset: 0; stroke-linecap: round; stroke-linejoin: miter; stroke-miterlimit: 4; stroke-opacity: 1; stroke-width: 2;" sketchjs:tool="path" d="M149 8 L77 23 17 107 0 187 44 217 112 207 155 152 165 58 162 0 149 8 z" transform="matrix(0.754211582091834,-0.5084734721023725,0.4917343515083421,0.7293826788771786,89.16839296720035,214.62117351354962)"/>
<path style="fill: #b5d0ff; stroke: #b5d0ff; mix-blend-mode: source-over; paint-order: stroke fill markers; fill-opacity: 1; stroke-dasharray: none; stroke-dashoffset: 0; stroke-linecap: round; stroke-linejoin: miter; stroke-miterlimit: 4; stroke-opacity: 1; stroke-width: 2;" sketchjs:tool="path" d="M149 8 L77 23 17 107 0 187 44 217 112 207 155 152 165 58 162 0 149 8 z" transform="matrix(-0.09297083708635204,-0.9048407627006934,0.8750530953468458,-0.08991020533445,227.2269564243362,284.91113646086995)"/>
<path style="fill: #b5d0ff; stroke: #b5d0ff; mix-blend-mode: source-over; paint-order: stroke fill markers; fill-opacity: 1; stroke-dasharray: none; stroke-dashoffset: 0; stroke-linecap: round; stroke-linejoin: miter; stroke-miterlimit: 4; stroke-opacity: 1; stroke-width: 2;" sketchjs:tool="path" d="M149 8 L77 23 17 107 0 187 44 217 112 207 155 152 165 58 162 0 149 8 z" transform="matrix(-0.8518052353323061,-0.3190740093673943,0.3085699838591643,-0.8237635156770019,316.8114532679733,219.90905223656205)"/>
<path style="fill: #b5d0ff; stroke: #b5d0ff; mix-blend-mode: source-over; paint-order: stroke fill markers; fill-opacity: 1; stroke-dasharray: none; stroke-dashoffset: 0; stroke-linecap: round; stroke-linejoin: miter; stroke-miterlimit: 4; stroke-opacity: 1; stroke-width: 2;" sketchjs:tool="path" d="M149 8 L77 23 17 107 0 187 44 217 112 207 155 152 165 58 162 0 149 8 z" transform="matrix(0.823628635982583,0.5756495892000267,-0.5566990078576372,0.7965144996139635,100.05605143647425,53.97795858985752)"/>
<path style="fill: #dbe8ff; stroke: #dbe8ff; mix-blend-mode: source-over; paint-order: stroke fill markers; fill-opacity: 1; stroke-dasharray: none; stroke-dashoffset: 0; stroke-linecap: round; stroke-linejoin: miter; stroke-miterlimit: 4; stroke-opacity: 1; stroke-width: 2;" sketchjs:tool="path" d="M149 8 L77 23 17 107 0 187 44 217 112 207 155 152 165 58 162 0 149 8 z" transform="matrix(0.9096045197740111,0,0,0.8796600279081567,61.577178342971855,140.80772619513155)"/>
<path style="fill: #dbe8ff; stroke: #dbe8ff; mix-blend-mode: source-over; paint-order: stroke fill markers; fill-opacity: 1; stroke-dasharray: none; stroke-dashoffset: 0; stroke-linecap: round; stroke-linejoin: miter; stroke-miterlimit: 4; stroke-opacity: 1; stroke-width: 2;" sketchjs:tool="path" d="M0 4 L5 63 27 113 68 141 121 170 151 157 163 126 138 75 114 33 90 7 8 0 0 4 z" transform="matrix(0.9500322256044427,0.09532117182663219,-0.09532117182663219,0.9500322256044428,215.9555615648754,140.82046993744535)"/>
<path style="fill: #dbe8ff; stroke: #dbe8ff; mix-blend-mode: source-over; paint-order: stroke fill markers; fill-opacity: 1; stroke-dasharray: none; stroke-dashoffset: 0; stroke-linecap: round; stroke-linejoin: miter; stroke-miterlimit: 4; stroke-opacity: 1; stroke-width: 2;" sketchjs:tool="path" d="M184 49 L166 29 117 0 76 3 26 32 0 63 3 116 45 130 77 114 109 88 165 78 194 74 184 49 z" transform="matrix(1,0,0,1,5,67)"/>
<path style="fill: #dbe8ff; stroke: #dbe8ff; mix-blend-mode: source-over; paint-order: stroke fill markers; fill-opacity: 1; stroke-dasharray: none; stroke-dashoffset: 0; stroke-linecap: round; stroke-linejoin: miter; stroke-miterlimit: 4; stroke-opacity: 1; stroke-width: 2;" sketchjs:tool="path" d="M28 128 L0 77 17 32 54 8 105 0 139 4 148 28 165 59 155 74 87 92 28 128 z" transform="matrix(1,0,0,1,181,2)"/>
<path style="fill: #dbe8ff; stroke: #dbe8ff; mix-blend-mode: source-over; paint-order: stroke fill markers; fill-opacity: 1; stroke-dasharray: none; stroke-dashoffset: 0; stroke-linecap: round; stroke-linejoin: miter; stroke-miterlimit: 4; stroke-opacity: 1; stroke-width: 2;" sketchjs:tool="path" d="M0 33 L39 9 110 0 154 4 176 64 174 111 120 120 83 64 19 52 0 33 z" transform="matrix(1,0,0,1,229.1452184179457,91.1806375442739)"/>
<path style="fill: #f2f4f8; mix-blend-mode: source-over; fill-opacity: 1;" sketchjs:tool="path" d="M48.19 0 L15.16 10.83 0 48.73 17.33 73.63 51.43 81.75 69.3 75.8 83.92 55.22 86.63 34.11 79.59 10.29 48.19 0 z" transform="matrix(1,0,0,1,164.4121251,105.5787087)"/>
</svg>